<?xml version="1.0" encoding="UTF-8" standalone="no"?>
<!DOCTYPE svg PUBLIC "-//W3C//DTD SVG 1.1//EN"
 "http://www.w3.org/Graphics/SVG/1.1/DTD/svg11.dtd">
<!-- Generated by graphviz version 2.47.0 (20210316.0004)
 -->
<!-- Title: dependencies Pages: 1 -->
<svg width="504pt" height="211pt"
 viewBox="0.00 0.00 504.00 211.00" xmlns="http://www.w3.org/2000/svg" xmlns:xlink="http://www.w3.org/1999/xlink">
<g id="graph0" class="graph" transform="scale(1 1) rotate(0) translate(4 207)">
<title>dependencies</title>
<polygon fill="white" stroke="transparent" points="-4,4 -4,-207 500,-207 500,4 -4,4"/>
<text text-anchor="start" x="227.01" y="-42.4" font-family="Times-12" font-weight="bold" font-size="14.00">Legend</text>
<polygon fill="#ffffb3" stroke="transparent" points="14,-10 14,-30 34,-30 34,-10 14,-10"/>
<text text-anchor="start" x="37.63" y="-15.4" font-family="Times-12" font-size="14.00"> &#160;Declarations</text>
<polygon fill="#8dd3c7" stroke="transparent" points="127,-10 127,-30 147,-30 147,-10 127,-10"/>
<text text-anchor="start" x="150.73" y="-15.4" font-family="Times-12" font-size="14.00"> &#160;Module</text>
<polygon fill="#80b1d3" stroke="transparent" points="213,-10 213,-30 233,-30 233,-10 213,-10"/>
<text text-anchor="start" x="236.78" y="-15.4" font-family="Times-12" font-size="14.00"> &#160;Bootstrap</text>
<polygon fill="#fdb462" stroke="transparent" points="310,-10 310,-30 330,-30 330,-10 310,-10"/>
<text text-anchor="start" x="333.67" y="-15.4" font-family="Times-12" font-size="14.00"> &#160;Providers</text>
<polygon fill="#fb8072" stroke="transparent" points="406,-10 406,-30 426,-30 426,-10 406,-10"/>
<text text-anchor="start" x="429.73" y="-15.4" font-family="Times-12" font-size="14.00"> &#160;Exports</text>
<g id="clust1" class="cluster">
<title>cluster_ArticleModule</title>
<polygon fill="none" stroke="black" stroke-dasharray="1,5" points="13,-70 13,-195 483,-195 483,-70 13,-70"/>
</g>
<g id="clust5" class="cluster">
<title>cluster_ArticleModule_imports</title>
<polygon fill="none" stroke="black" points="315,-78 315,-130 475,-130 475,-78 315,-78"/>
</g>
<g id="clust2" class="cluster">
<title>cluster_ArticleModule_declarations</title>
<polygon fill="none" stroke="black" points="21,-78 21,-130 307,-130 307,-78 21,-78"/>
</g>
<!-- ADeleteComponent -->
<g id="node1" class="node">
<title>ADeleteComponent</title>
<polygon fill="#ffffb3" stroke="black" points="298.97,-122 171.03,-122 171.03,-86 298.97,-86 298.97,-122"/>
<text text-anchor="middle" x="235" y="-99.8" font-family="Times,serif" font-size="14.00">ADeleteComponent</text>
</g>
<!-- ArticleModule -->
<g id="node3" class="node">
<title>ArticleModule</title>
<polygon fill="#8dd3c7" stroke="black" points="284.42,-187 281.42,-191 260.42,-191 257.42,-187 185.58,-187 185.58,-151 284.42,-151 284.42,-187"/>
<text text-anchor="middle" x="235" y="-164.8" font-family="Times,serif" font-size="14.00">ArticleModule</text>
</g>
<!-- ADeleteComponent&#45;&gt;ArticleModule -->
<g id="edge1" class="edge">
<title>ADeleteComponent&#45;&gt;ArticleModule</title>
<path fill="none" stroke="black" d="M235,-122.11C235,-122.11 235,-140.99 235,-140.99"/>
<polygon fill="black" stroke="black" points="231.5,-140.99 235,-150.99 238.5,-140.99 231.5,-140.99"/>
</g>
<!-- AIndexComponent -->
<g id="node2" class="node">
<title>AIndexComponent</title>
<polygon fill="#ffffb3" stroke="black" points="152.81,-122 29.19,-122 29.19,-86 152.81,-86 152.81,-122"/>
<text text-anchor="middle" x="91" y="-99.8" font-family="Times,serif" font-size="14.00">AIndexComponent</text>
</g>
<!-- AIndexComponent&#45;&gt;ArticleModule -->
<g id="edge2" class="edge">
<title>AIndexComponent&#45;&gt;ArticleModule</title>
<path fill="none" stroke="black" d="M91,-122.11C91,-141.34 91,-169 91,-169 91,-169 175.44,-169 175.44,-169"/>
<polygon fill="black" stroke="black" points="175.44,-172.5 185.44,-169 175.44,-165.5 175.44,-172.5"/>
</g>
<!-- ArticleRoutingModule -->
<g id="node4" class="node">
<title>ArticleRoutingModule</title>
<polygon fill="#8dd3c7" stroke="black" points="466.54,-122 463.54,-126 442.54,-126 439.54,-122 323.46,-122 323.46,-86 466.54,-86 466.54,-122"/>
<text text-anchor="middle" x="395" y="-99.8" font-family="Times,serif" font-size="14.00">ArticleRoutingModule</text>
</g>
<!-- ArticleRoutingModule&#45;&gt;ArticleModule -->
<g id="edge3" class="edge">
<title>ArticleRoutingModule&#45;&gt;ArticleModule</title>
<path fill="none" stroke="black" d="M395,-122.11C395,-141.34 395,-169 395,-169 395,-169 294.31,-169 294.31,-169"/>
<polygon fill="black" stroke="black" points="294.31,-165.5 284.31,-169 294.31,-172.5 294.31,-165.5"/>
</g>
</g>
</svg>
