<?xml version="1.0" encoding="UTF-8" standalone="no"?>
<!DOCTYPE svg PUBLIC "-//W3C//DTD SVG 1.1//EN"
 "http://www.w3.org/Graphics/SVG/1.1/DTD/svg11.dtd">
<!-- Generated by graphviz version 2.47.0 (20210316.0004)
 -->
<!-- Title: dependencies Pages: 1 -->
<svg width="504pt" height="211pt"
 viewBox="0.00 0.00 504.00 211.00" xmlns="http://www.w3.org/2000/svg" xmlns:xlink="http://www.w3.org/1999/xlink">
<g id="graph0" class="graph" transform="scale(1 1) rotate(0) translate(4 207)">
<title>dependencies</title>
<polygon fill="white" stroke="transparent" points="-4,4 -4,-207 500,-207 500,4 -4,4"/>
<text text-anchor="start" x="227.01" y="-42.4" font-family="Times-12" font-weight="bold" font-size="14.00">Legend</text>
<polygon fill="#ffffb3" stroke="transparent" points="14,-10 14,-30 34,-30 34,-10 14,-10"/>
<text text-anchor="start" x="37.63" y="-15.4" font-family="Times-12" font-size="14.00"> &#160;Declarations</text>
<polygon fill="#8dd3c7" stroke="transparent" points="127,-10 127,-30 147,-30 147,-10 127,-10"/>
<text text-anchor="start" x="150.73" y="-15.4" font-family="Times-12" font-size="14.00"> &#160;Module</text>
<polygon fill="#80b1d3" stroke="transparent" points="213,-10 213,-30 233,-30 233,-10 213,-10"/>
<text text-anchor="start" x="236.78" y="-15.4" font-family="Times-12" font-size="14.00"> &#160;Bootstrap</text>
<polygon fill="#fdb462" stroke="transparent" points="310,-10 310,-30 330,-30 330,-10 310,-10"/>
<text text-anchor="start" x="333.67" y="-15.4" font-family="Times-12" font-size="14.00"> &#160;Providers</text>
<polygon fill="#fb8072" stroke="transparent" points="406,-10 406,-30 426,-30 426,-10 406,-10"/>
<text text-anchor="start" x="429.73" y="-15.4" font-family="Times-12" font-size="14.00"> &#160;Exports</text>
<g id="clust1" class="cluster">
<title>cluster_ArticleModule</title>
<polygon fill="none" stroke="black" stroke-dasharray="1,5" points="13,-70 13,-195 483,-195 483,-70 13,-70"/>
</g>
<g id="clust2" class="cluster">
<title>cluster_ArticleModule_declarations</title>
<polygon fill="none" stroke="black" points="189,-78 189,-130 475,-130 475,-78 189,-78"/>
</g>
<g id="clust5" class="cluster">
<title>cluster_ArticleModule_imports</title>
<polygon fill="none" stroke="black" points="21,-78 21,-130 181,-130 181,-78 21,-78"/>
</g>
<!-- ADeleteComponent -->
<g id="node1" class="node">
<title>ADeleteComponent</title>
<polygon fill="#ffffb3" stroke="black" points="466.97,-122 339.03,-122 339.03,-86 466.97,-86 466.97,-122"/>
<text text-anchor="middle" x="403" y="-99.8" font-family="Times,serif" font-size="14.00">ADeleteComponent</text>
</g>
<!-- ArticleModule -->
<g id="node3" class="node">
<title>ArticleModule</title>
<polygon fill="#8dd3c7" stroke="black" points="308.42,-187 305.42,-191 284.42,-191 281.42,-187 209.58,-187 209.58,-151 308.42,-151 308.42,-187"/>
<text text-anchor="middle" x="259" y="-164.8" font-family="Times,serif" font-size="14.00">ArticleModule</text>
</g>
<!-- ADeleteComponent&#45;&gt;ArticleModule -->
<g id="edge1" class="edge">
<title>ADeleteComponent&#45;&gt;ArticleModule</title>
<path fill="none" stroke="black" d="M403,-122.11C403,-141.34 403,-169 403,-169 403,-169 318.56,-169 318.56,-169"/>
<polygon fill="black" stroke="black" points="318.56,-165.5 308.56,-169 318.56,-172.5 318.56,-165.5"/>
</g>
<!-- AIndexComponent -->
<g id="node2" class="node">
<title>AIndexComponent</title>
<polygon fill="#ffffb3" stroke="black" points="320.81,-122 197.19,-122 197.19,-86 320.81,-86 320.81,-122"/>
<text text-anchor="middle" x="259" y="-99.8" font-family="Times,serif" font-size="14.00">AIndexComponent</text>
</g>
<!-- AIndexComponent&#45;&gt;ArticleModule -->
<g id="edge2" class="edge">
<title>AIndexComponent&#45;&gt;ArticleModule</title>
<path fill="none" stroke="black" d="M259,-122.11C259,-122.11 259,-140.99 259,-140.99"/>
<polygon fill="black" stroke="black" points="255.5,-140.99 259,-150.99 262.5,-140.99 255.5,-140.99"/>
</g>
<!-- ArticleRoutingModule -->
<g id="node4" class="node">
<title>ArticleRoutingModule</title>
<polygon fill="#8dd3c7" stroke="black" points="172.54,-122 169.54,-126 148.54,-126 145.54,-122 29.46,-122 29.46,-86 172.54,-86 172.54,-122"/>
<text text-anchor="middle" x="101" y="-99.8" font-family="Times,serif" font-size="14.00">ArticleRoutingModule</text>
</g>
<!-- ArticleRoutingModule&#45;&gt;ArticleModule -->
<g id="edge3" class="edge">
<title>ArticleRoutingModule&#45;&gt;ArticleModule</title>
<path fill="none" stroke="black" d="M101,-122.11C101,-141.34 101,-169 101,-169 101,-169 199.44,-169 199.44,-169"/>
<polygon fill="black" stroke="black" points="199.44,-172.5 209.44,-169 199.44,-165.5 199.44,-172.5"/>
</g>
</g>
</svg>
