<?xml version="1.0" encoding="UTF-8" standalone="no"?>
<!DOCTYPE svg PUBLIC "-//W3C//DTD SVG 1.1//EN"
 "http://www.w3.org/Graphics/SVG/1.1/DTD/svg11.dtd">
<!-- Generated by graphviz version 2.47.0 (20210316.0004)
 -->
<!-- Title: dependencies Pages: 1 -->
<svg width="896pt" height="211pt"
 viewBox="0.00 0.00 896.00 211.00" xmlns="http://www.w3.org/2000/svg" xmlns:xlink="http://www.w3.org/1999/xlink">
<g id="graph0" class="graph" transform="scale(1 1) rotate(0) translate(4 207)">
<title>dependencies</title>
<polygon fill="white" stroke="transparent" points="-4,4 -4,-207 892,-207 892,4 -4,4"/>
<text text-anchor="start" x="423.01" y="-42.4" font-family="Times-12" font-weight="bold" font-size="14.00">Legend</text>
<polygon fill="#ffffb3" stroke="transparent" points="210,-10 210,-30 230,-30 230,-10 210,-10"/>
<text text-anchor="start" x="233.63" y="-15.4" font-family="Times-12" font-size="14.00"> &#160;Declarations</text>
<polygon fill="#8dd3c7" stroke="transparent" points="323,-10 323,-30 343,-30 343,-10 323,-10"/>
<text text-anchor="start" x="346.73" y="-15.4" font-family="Times-12" font-size="14.00"> &#160;Module</text>
<polygon fill="#80b1d3" stroke="transparent" points="409,-10 409,-30 429,-30 429,-10 409,-10"/>
<text text-anchor="start" x="432.78" y="-15.4" font-family="Times-12" font-size="14.00"> &#160;Bootstrap</text>
<polygon fill="#fdb462" stroke="transparent" points="506,-10 506,-30 526,-30 526,-10 506,-10"/>
<text text-anchor="start" x="529.67" y="-15.4" font-family="Times-12" font-size="14.00"> &#160;Providers</text>
<polygon fill="#fb8072" stroke="transparent" points="602,-10 602,-30 622,-30 622,-10 602,-10"/>
<text text-anchor="start" x="625.73" y="-15.4" font-family="Times-12" font-size="14.00"> &#160;Exports</text>
<g id="clust1" class="cluster">
<title>cluster_AdminModule</title>
<polygon fill="none" stroke="black" stroke-dasharray="1,5" points="8,-70 8,-195 880,-195 880,-70 8,-70"/>
</g>
<g id="clust2" class="cluster">
<title>cluster_AdminModule_declarations</title>
<polygon fill="none" stroke="black" points="184,-78 184,-130 872,-130 872,-78 184,-78"/>
</g>
<g id="clust7" class="cluster">
<title>cluster_AdminModule_imports</title>
<polygon fill="none" stroke="black" points="16,-78 16,-130 176,-130 176,-78 16,-78"/>
</g>
<!-- AdminLayoutComponent -->
<g id="node1" class="node">
<title>AdminLayoutComponent</title>
<polygon fill="#ffffb3" stroke="black" points="863.88,-122 704.12,-122 704.12,-86 863.88,-86 863.88,-122"/>
<text text-anchor="middle" x="784" y="-99.8" font-family="Times,serif" font-size="14.00">AdminLayoutComponent</text>
</g>
<!-- AdminModule -->
<g id="node5" class="node">
<title>AdminModule</title>
<polygon fill="#8dd3c7" stroke="black" points="486.44,-187 483.44,-191 462.44,-191 459.44,-187 387.56,-187 387.56,-151 486.44,-151 486.44,-187"/>
<text text-anchor="middle" x="437" y="-164.8" font-family="Times,serif" font-size="14.00">AdminModule</text>
</g>
<!-- AdminLayoutComponent&#45;&gt;AdminModule -->
<g id="edge1" class="edge">
<title>AdminLayoutComponent&#45;&gt;AdminModule</title>
<path fill="none" stroke="black" d="M784,-122.28C784,-143.32 784,-175 784,-175 784,-175 496.35,-175 496.35,-175"/>
<polygon fill="black" stroke="black" points="496.35,-171.5 486.35,-175 496.35,-178.5 496.35,-171.5"/>
</g>
<!-- DashboardComponent -->
<g id="node2" class="node">
<title>DashboardComponent</title>
<polygon fill="#ffffb3" stroke="black" points="685.97,-122 544.03,-122 544.03,-86 685.97,-86 685.97,-122"/>
<text text-anchor="middle" x="615" y="-99.8" font-family="Times,serif" font-size="14.00">DashboardComponent</text>
</g>
<!-- DashboardComponent&#45;&gt;AdminModule -->
<g id="edge2" class="edge">
<title>DashboardComponent&#45;&gt;AdminModule</title>
<path fill="none" stroke="black" d="M615,-122.02C615,-139.37 615,-163 615,-163 615,-163 496.58,-163 496.58,-163"/>
<polygon fill="black" stroke="black" points="496.58,-159.5 486.58,-163 496.58,-166.5 496.58,-159.5"/>
</g>
<!-- NavBarrePlayoutComponent -->
<g id="node3" class="node">
<title>NavBarrePlayoutComponent</title>
<polygon fill="#ffffb3" stroke="black" points="526.02,-122 347.98,-122 347.98,-86 526.02,-86 526.02,-122"/>
<text text-anchor="middle" x="437" y="-99.8" font-family="Times,serif" font-size="14.00">NavBarrePlayoutComponent</text>
</g>
<!-- NavBarrePlayoutComponent&#45;&gt;AdminModule -->
<g id="edge3" class="edge">
<title>NavBarrePlayoutComponent&#45;&gt;AdminModule</title>
<path fill="none" stroke="black" d="M437,-122.11C437,-122.11 437,-140.99 437,-140.99"/>
<polygon fill="black" stroke="black" points="433.5,-140.99 437,-150.99 440.5,-140.99 433.5,-140.99"/>
</g>
<!-- SidemenuComponent -->
<g id="node4" class="node">
<title>SidemenuComponent</title>
<polygon fill="#ffffb3" stroke="black" points="329.83,-122 192.17,-122 192.17,-86 329.83,-86 329.83,-122"/>
<text text-anchor="middle" x="261" y="-99.8" font-family="Times,serif" font-size="14.00">SidemenuComponent</text>
</g>
<!-- SidemenuComponent&#45;&gt;AdminModule -->
<g id="edge4" class="edge">
<title>SidemenuComponent&#45;&gt;AdminModule</title>
<path fill="none" stroke="black" d="M261,-122.02C261,-139.37 261,-163 261,-163 261,-163 377.51,-163 377.51,-163"/>
<polygon fill="black" stroke="black" points="377.51,-166.5 387.51,-163 377.51,-159.5 377.51,-166.5"/>
</g>
<!-- AdminRoutingModule -->
<g id="node6" class="node">
<title>AdminRoutingModule</title>
<polygon fill="#8dd3c7" stroke="black" points="167.56,-122 164.56,-126 143.56,-126 140.56,-122 24.44,-122 24.44,-86 167.56,-86 167.56,-122"/>
<text text-anchor="middle" x="96" y="-99.8" font-family="Times,serif" font-size="14.00">AdminRoutingModule</text>
</g>
<!-- AdminRoutingModule&#45;&gt;AdminModule -->
<g id="edge5" class="edge">
<title>AdminRoutingModule&#45;&gt;AdminModule</title>
<path fill="none" stroke="black" d="M96,-122.28C96,-143.32 96,-175 96,-175 96,-175 377.78,-175 377.78,-175"/>
<polygon fill="black" stroke="black" points="377.78,-178.5 387.78,-175 377.78,-171.5 377.78,-178.5"/>
</g>
</g>
</svg>
