<?xml version="1.0" encoding="UTF-8" standalone="no"?>
<!DOCTYPE svg PUBLIC "-//W3C//DTD SVG 1.1//EN"
 "http://www.w3.org/Graphics/SVG/1.1/DTD/svg11.dtd">
<!-- Generated by graphviz version 2.47.0 (20210316.0004)
 -->
<!-- Title: dependencies Pages: 1 -->
<svg width="783pt" height="211pt"
 viewBox="0.00 0.00 783.00 211.00" xmlns="http://www.w3.org/2000/svg" xmlns:xlink="http://www.w3.org/1999/xlink">
<g id="graph0" class="graph" transform="scale(1 1) rotate(0) translate(4 207)">
<title>dependencies</title>
<polygon fill="white" stroke="transparent" points="-4,4 -4,-207 779,-207 779,4 -4,4"/>
<text text-anchor="start" x="366.51" y="-42.4" font-family="Times-12" font-weight="bold" font-size="14.00">Legend</text>
<polygon fill="#ffffb3" stroke="transparent" points="153.5,-10 153.5,-30 173.5,-30 173.5,-10 153.5,-10"/>
<text text-anchor="start" x="177.13" y="-15.4" font-family="Times-12" font-size="14.00"> &#160;Declarations</text>
<polygon fill="#8dd3c7" stroke="transparent" points="266.5,-10 266.5,-30 286.5,-30 286.5,-10 266.5,-10"/>
<text text-anchor="start" x="290.23" y="-15.4" font-family="Times-12" font-size="14.00"> &#160;Module</text>
<polygon fill="#80b1d3" stroke="transparent" points="352.5,-10 352.5,-30 372.5,-30 372.5,-10 352.5,-10"/>
<text text-anchor="start" x="376.28" y="-15.4" font-family="Times-12" font-size="14.00"> &#160;Bootstrap</text>
<polygon fill="#fdb462" stroke="transparent" points="449.5,-10 449.5,-30 469.5,-30 469.5,-10 449.5,-10"/>
<text text-anchor="start" x="473.17" y="-15.4" font-family="Times-12" font-size="14.00"> &#160;Providers</text>
<polygon fill="#fb8072" stroke="transparent" points="545.5,-10 545.5,-30 565.5,-30 565.5,-10 545.5,-10"/>
<text text-anchor="start" x="569.23" y="-15.4" font-family="Times-12" font-size="14.00"> &#160;Exports</text>
<g id="clust1" class="cluster">
<title>cluster_EvenementsModule</title>
<polygon fill="none" stroke="black" stroke-dasharray="1,5" points="8,-70 8,-195 767,-195 767,-70 8,-70"/>
</g>
<g id="clust2" class="cluster">
<title>cluster_EvenementsModule_declarations</title>
<polygon fill="none" stroke="black" points="214,-78 214,-130 759,-130 759,-78 214,-78"/>
</g>
<g id="clust7" class="cluster">
<title>cluster_EvenementsModule_imports</title>
<polygon fill="none" stroke="black" points="16,-78 16,-130 206,-130 206,-78 16,-78"/>
</g>
<!-- EAddComponent -->
<g id="node1" class="node">
<title>EAddComponent</title>
<polygon fill="#ffffb3" stroke="black" points="750.99,-122 637.01,-122 637.01,-86 750.99,-86 750.99,-122"/>
<text text-anchor="middle" x="694" y="-99.8" font-family="Times,serif" font-size="14.00">EAddComponent</text>
</g>
<!-- EvenementsModule -->
<g id="node5" class="node">
<title>EvenementsModule</title>
<polygon fill="#8dd3c7" stroke="black" points="481.97,-187 478.97,-191 457.97,-191 454.97,-187 354.03,-187 354.03,-151 481.97,-151 481.97,-187"/>
<text text-anchor="middle" x="418" y="-164.8" font-family="Times,serif" font-size="14.00">EvenementsModule</text>
</g>
<!-- EAddComponent&#45;&gt;EvenementsModule -->
<g id="edge1" class="edge">
<title>EAddComponent&#45;&gt;EvenementsModule</title>
<path fill="none" stroke="black" d="M694,-122.11C694,-141.34 694,-169 694,-169 694,-169 492.01,-169 492.01,-169"/>
<polygon fill="black" stroke="black" points="492.01,-165.5 482.01,-169 492.01,-172.5 492.01,-165.5"/>
</g>
<!-- EDeleteComponent -->
<g id="node2" class="node">
<title>EDeleteComponent</title>
<polygon fill="#ffffb3" stroke="black" points="619.42,-122 492.58,-122 492.58,-86 619.42,-86 619.42,-122"/>
<text text-anchor="middle" x="556" y="-99.8" font-family="Times,serif" font-size="14.00">EDeleteComponent</text>
</g>
<!-- EDeleteComponent&#45;&gt;EvenementsModule -->
<g id="edge2" class="edge">
<title>EDeleteComponent&#45;&gt;EvenementsModule</title>
<path fill="none" stroke="black" d="M492.55,-104C484.11,-104 478.3,-104 478.3,-104 478.3,-104 478.3,-140.89 478.3,-140.89"/>
<polygon fill="black" stroke="black" points="474.8,-140.89 478.3,-150.89 481.8,-140.89 474.8,-140.89"/>
</g>
<!-- EEditComponent -->
<g id="node3" class="node">
<title>EEditComponent</title>
<polygon fill="#ffffb3" stroke="black" points="474.72,-122 361.28,-122 361.28,-86 474.72,-86 474.72,-122"/>
<text text-anchor="middle" x="418" y="-99.8" font-family="Times,serif" font-size="14.00">EEditComponent</text>
</g>
<!-- EEditComponent&#45;&gt;EvenementsModule -->
<g id="edge3" class="edge">
<title>EEditComponent&#45;&gt;EvenementsModule</title>
<path fill="none" stroke="black" d="M418,-122.11C418,-122.11 418,-140.99 418,-140.99"/>
<polygon fill="black" stroke="black" points="414.5,-140.99 418,-150.99 421.5,-140.99 414.5,-140.99"/>
</g>
<!-- EIndexComponent -->
<g id="node4" class="node">
<title>EIndexComponent</title>
<polygon fill="#ffffb3" stroke="black" points="343.76,-122 222.24,-122 222.24,-86 343.76,-86 343.76,-122"/>
<text text-anchor="middle" x="283" y="-99.8" font-family="Times,serif" font-size="14.00">EIndexComponent</text>
</g>
<!-- EIndexComponent&#45;&gt;EvenementsModule -->
<g id="edge4" class="edge">
<title>EIndexComponent&#45;&gt;EvenementsModule</title>
<path fill="none" stroke="black" d="M344,-104C352.12,-104 357.7,-104 357.7,-104 357.7,-104 357.7,-140.89 357.7,-140.89"/>
<polygon fill="black" stroke="black" points="354.2,-140.89 357.7,-150.89 361.2,-140.89 354.2,-140.89"/>
</g>
<!-- EvenementsRoutingModule -->
<g id="node6" class="node">
<title>EvenementsRoutingModule</title>
<polygon fill="#8dd3c7" stroke="black" points="197.59,-122 194.59,-126 173.59,-126 170.59,-122 24.41,-122 24.41,-86 197.59,-86 197.59,-122"/>
<text text-anchor="middle" x="111" y="-99.8" font-family="Times,serif" font-size="14.00">EvenementsRoutingModule</text>
</g>
<!-- EvenementsRoutingModule&#45;&gt;EvenementsModule -->
<g id="edge5" class="edge">
<title>EvenementsRoutingModule&#45;&gt;EvenementsModule</title>
<path fill="none" stroke="black" d="M111,-122.11C111,-141.34 111,-169 111,-169 111,-169 344.02,-169 344.02,-169"/>
<polygon fill="black" stroke="black" points="344.02,-172.5 354.02,-169 344.02,-165.5 344.02,-172.5"/>
</g>
</g>
</svg>
