<?xml version="1.0" encoding="UTF-8" standalone="no"?>
<!DOCTYPE svg PUBLIC "-//W3C//DTD SVG 1.1//EN"
 "http://www.w3.org/Graphics/SVG/1.1/DTD/svg11.dtd">
<!-- Generated by graphviz version 2.47.0 (20210316.0004)
 -->
<!-- Title: dependencies Pages: 1 -->
<svg width="1301pt" height="211pt"
 viewBox="0.00 0.00 1301.00 211.00" xmlns="http://www.w3.org/2000/svg" xmlns:xlink="http://www.w3.org/1999/xlink">
<g id="graph0" class="graph" transform="scale(1 1) rotate(0) translate(4 207)">
<title>dependencies</title>
<polygon fill="white" stroke="transparent" points="-4,4 -4,-207 1297,-207 1297,4 -4,4"/>
<text text-anchor="start" x="625.51" y="-42.4" font-family="Times-12" font-weight="bold" font-size="14.00">Legend</text>
<polygon fill="#ffffb3" stroke="transparent" points="412.5,-10 412.5,-30 432.5,-30 432.5,-10 412.5,-10"/>
<text text-anchor="start" x="436.13" y="-15.4" font-family="Times-12" font-size="14.00"> &#160;Declarations</text>
<polygon fill="#8dd3c7" stroke="transparent" points="525.5,-10 525.5,-30 545.5,-30 545.5,-10 525.5,-10"/>
<text text-anchor="start" x="549.23" y="-15.4" font-family="Times-12" font-size="14.00"> &#160;Module</text>
<polygon fill="#80b1d3" stroke="transparent" points="611.5,-10 611.5,-30 631.5,-30 631.5,-10 611.5,-10"/>
<text text-anchor="start" x="635.28" y="-15.4" font-family="Times-12" font-size="14.00"> &#160;Bootstrap</text>
<polygon fill="#fdb462" stroke="transparent" points="708.5,-10 708.5,-30 728.5,-30 728.5,-10 708.5,-10"/>
<text text-anchor="start" x="732.17" y="-15.4" font-family="Times-12" font-size="14.00"> &#160;Providers</text>
<polygon fill="#fb8072" stroke="transparent" points="804.5,-10 804.5,-30 824.5,-30 824.5,-10 804.5,-10"/>
<text text-anchor="start" x="828.23" y="-15.4" font-family="Times-12" font-size="14.00"> &#160;Exports</text>
<g id="clust1" class="cluster">
<title>cluster_PublicModule</title>
<polygon fill="none" stroke="black" stroke-dasharray="1,5" points="8,-70 8,-195 1285,-195 1285,-70 8,-70"/>
</g>
<g id="clust2" class="cluster">
<title>cluster_PublicModule_declarations</title>
<polygon fill="none" stroke="black" points="180,-78 180,-130 1277,-130 1277,-78 180,-78"/>
</g>
<g id="clust10" class="cluster">
<title>cluster_PublicModule_imports</title>
<polygon fill="none" stroke="black" points="16,-78 16,-130 172,-130 172,-78 16,-78"/>
</g>
<!-- ArticleComponent -->
<g id="node1" class="node">
<title>ArticleComponent</title>
<polygon fill="#ffffb3" stroke="black" points="1269.2,-122 1148.8,-122 1148.8,-86 1269.2,-86 1269.2,-122"/>
<text text-anchor="middle" x="1209" y="-99.8" font-family="Times,serif" font-size="14.00">ArticleComponent</text>
</g>
<!-- PublicModule -->
<g id="node8" class="node">
<title>PublicModule</title>
<polygon fill="#8dd3c7" stroke="black" points="709.83,-187 706.83,-191 685.83,-191 682.83,-187 614.17,-187 614.17,-151 709.83,-151 709.83,-187"/>
<text text-anchor="middle" x="662" y="-164.8" font-family="Times,serif" font-size="14.00">PublicModule</text>
</g>
<!-- ArticleComponent&#45;&gt;PublicModule -->
<g id="edge1" class="edge">
<title>ArticleComponent&#45;&gt;PublicModule</title>
<path fill="none" stroke="black" d="M1209,-122.29C1209,-144.21 1209,-178 1209,-178 1209,-178 720.06,-178 720.06,-178"/>
<polygon fill="black" stroke="black" points="720.06,-174.5 710.06,-178 720.06,-181.5 720.06,-174.5"/>
</g>
<!-- ContactComponent -->
<g id="node2" class="node">
<title>ContactComponent</title>
<polygon fill="#ffffb3" stroke="black" points="1130.38,-122 1005.62,-122 1005.62,-86 1130.38,-86 1130.38,-122"/>
<text text-anchor="middle" x="1068" y="-99.8" font-family="Times,serif" font-size="14.00">ContactComponent</text>
</g>
<!-- ContactComponent&#45;&gt;PublicModule -->
<g id="edge2" class="edge">
<title>ContactComponent&#45;&gt;PublicModule</title>
<path fill="none" stroke="black" d="M1068,-122.11C1068,-141.34 1068,-169 1068,-169 1068,-169 719.77,-169 719.77,-169"/>
<polygon fill="black" stroke="black" points="719.77,-165.5 709.77,-169 719.77,-172.5 719.77,-165.5"/>
</g>
<!-- EvenementsComponent -->
<g id="node3" class="node">
<title>EvenementsComponent</title>
<polygon fill="#ffffb3" stroke="black" points="987.75,-122 838.25,-122 838.25,-86 987.75,-86 987.75,-122"/>
<text text-anchor="middle" x="913" y="-99.8" font-family="Times,serif" font-size="14.00">EvenementsComponent</text>
</g>
<!-- EvenementsComponent&#45;&gt;PublicModule -->
<g id="edge3" class="edge">
<title>EvenementsComponent&#45;&gt;PublicModule</title>
<path fill="none" stroke="black" d="M913,-122.03C913,-138.4 913,-160 913,-160 913,-160 719.8,-160 719.8,-160"/>
<polygon fill="black" stroke="black" points="719.8,-156.5 709.8,-160 719.8,-163.5 719.8,-156.5"/>
</g>
<!-- FooterPlayoutComponent -->
<g id="node4" class="node">
<title>FooterPlayoutComponent</title>
<polygon fill="#ffffb3" stroke="black" points="820.16,-122 659.84,-122 659.84,-86 820.16,-86 820.16,-122"/>
<text text-anchor="middle" x="740" y="-99.8" font-family="Times,serif" font-size="14.00">FooterPlayoutComponent</text>
</g>
<!-- FooterPlayoutComponent&#45;&gt;PublicModule -->
<g id="edge4" class="edge">
<title>FooterPlayoutComponent&#45;&gt;PublicModule</title>
<path fill="none" stroke="black" d="M684.67,-122.11C684.67,-122.11 684.67,-140.99 684.67,-140.99"/>
<polygon fill="black" stroke="black" points="681.17,-140.99 684.67,-150.99 688.17,-140.99 681.17,-140.99"/>
</g>
<!-- HomeComponent -->
<g id="node5" class="node">
<title>HomeComponent</title>
<polygon fill="#ffffb3" stroke="black" points="641.55,-122 526.45,-122 526.45,-86 641.55,-86 641.55,-122"/>
<text text-anchor="middle" x="584" y="-99.8" font-family="Times,serif" font-size="14.00">HomeComponent</text>
</g>
<!-- HomeComponent&#45;&gt;PublicModule -->
<g id="edge5" class="edge">
<title>HomeComponent&#45;&gt;PublicModule</title>
<path fill="none" stroke="black" d="M628.05,-122.11C628.05,-122.11 628.05,-140.99 628.05,-140.99"/>
<polygon fill="black" stroke="black" points="624.55,-140.99 628.05,-150.99 631.55,-140.99 624.55,-140.99"/>
</g>
<!-- NavBarrePlayoutComponent -->
<g id="node6" class="node">
<title>NavBarrePlayoutComponent</title>
<polygon fill="#ffffb3" stroke="black" points="508.02,-122 329.98,-122 329.98,-86 508.02,-86 508.02,-122"/>
<text text-anchor="middle" x="419" y="-99.8" font-family="Times,serif" font-size="14.00">NavBarrePlayoutComponent</text>
</g>
<!-- NavBarrePlayoutComponent&#45;&gt;PublicModule -->
<g id="edge6" class="edge">
<title>NavBarrePlayoutComponent&#45;&gt;PublicModule</title>
<path fill="none" stroke="black" d="M419,-122.03C419,-138.4 419,-160 419,-160 419,-160 604.28,-160 604.28,-160"/>
<polygon fill="black" stroke="black" points="604.28,-163.5 614.28,-160 604.28,-156.5 604.28,-163.5"/>
</g>
<!-- PlayoutComponent -->
<g id="node7" class="node">
<title>PlayoutComponent</title>
<polygon fill="#ffffb3" stroke="black" points="312.11,-122 187.89,-122 187.89,-86 312.11,-86 312.11,-122"/>
<text text-anchor="middle" x="250" y="-99.8" font-family="Times,serif" font-size="14.00">PlayoutComponent</text>
</g>
<!-- PlayoutComponent&#45;&gt;PublicModule -->
<g id="edge7" class="edge">
<title>PlayoutComponent&#45;&gt;PublicModule</title>
<path fill="none" stroke="black" d="M250,-122.11C250,-141.34 250,-169 250,-169 250,-169 604.34,-169 604.34,-169"/>
<polygon fill="black" stroke="black" points="604.34,-172.5 614.34,-169 604.34,-165.5 604.34,-172.5"/>
</g>
<!-- PublicRoutingModule -->
<g id="node9" class="node">
<title>PublicRoutingModule</title>
<polygon fill="#8dd3c7" stroke="black" points="164.45,-122 161.45,-126 140.45,-126 137.45,-122 23.55,-122 23.55,-86 164.45,-86 164.45,-122"/>
<text text-anchor="middle" x="94" y="-99.8" font-family="Times,serif" font-size="14.00">PublicRoutingModule</text>
</g>
<!-- PublicRoutingModule&#45;&gt;PublicModule -->
<g id="edge8" class="edge">
<title>PublicRoutingModule&#45;&gt;PublicModule</title>
<path fill="none" stroke="black" d="M94,-122.29C94,-144.21 94,-178 94,-178 94,-178 604.06,-178 604.06,-178"/>
<polygon fill="black" stroke="black" points="604.06,-181.5 614.06,-178 604.06,-174.5 604.06,-181.5"/>
</g>
</g>
</svg>
