<?xml version="1.0" encoding="UTF-8" standalone="no"?>
<!DOCTYPE svg PUBLIC "-//W3C//DTD SVG 1.1//EN"
 "http://www.w3.org/Graphics/SVG/1.1/DTD/svg11.dtd">
<!-- Generated by graphviz version 2.47.0 (20210316.0004)
 -->
<!-- Title: dependencies Pages: 1 -->
<svg width="1301pt" height="211pt"
 viewBox="0.00 0.00 1301.00 211.00" xmlns="http://www.w3.org/2000/svg" xmlns:xlink="http://www.w3.org/1999/xlink">
<g id="graph0" class="graph" transform="scale(1 1) rotate(0) translate(4 207)">
<title>dependencies</title>
<polygon fill="white" stroke="transparent" points="-4,4 -4,-207 1297,-207 1297,4 -4,4"/>
<text text-anchor="start" x="625.51" y="-42.4" font-family="Times-12" font-weight="bold" font-size="14.00">Legend</text>
<polygon fill="#ffffb3" stroke="transparent" points="412.5,-10 412.5,-30 432.5,-30 432.5,-10 412.5,-10"/>
<text text-anchor="start" x="436.13" y="-15.4" font-family="Times-12" font-size="14.00"> &#160;Declarations</text>
<polygon fill="#8dd3c7" stroke="transparent" points="525.5,-10 525.5,-30 545.5,-30 545.5,-10 525.5,-10"/>
<text text-anchor="start" x="549.23" y="-15.4" font-family="Times-12" font-size="14.00"> &#160;Module</text>
<polygon fill="#80b1d3" stroke="transparent" points="611.5,-10 611.5,-30 631.5,-30 631.5,-10 611.5,-10"/>
<text text-anchor="start" x="635.28" y="-15.4" font-family="Times-12" font-size="14.00"> &#160;Bootstrap</text>
<polygon fill="#fdb462" stroke="transparent" points="708.5,-10 708.5,-30 728.5,-30 728.5,-10 708.5,-10"/>
<text text-anchor="start" x="732.17" y="-15.4" font-family="Times-12" font-size="14.00"> &#160;Providers</text>
<polygon fill="#fb8072" stroke="transparent" points="804.5,-10 804.5,-30 824.5,-30 824.5,-10 804.5,-10"/>
<text text-anchor="start" x="828.23" y="-15.4" font-family="Times-12" font-size="14.00"> &#160;Exports</text>
<g id="clust1" class="cluster">
<title>cluster_PublicModule</title>
<polygon fill="none" stroke="black" stroke-dasharray="1,5" points="8,-70 8,-195 1285,-195 1285,-70 8,-70"/>
</g>
<g id="clust10" class="cluster">
<title>cluster_PublicModule_imports</title>
<polygon fill="none" stroke="black" points="1121,-78 1121,-130 1277,-130 1277,-78 1121,-78"/>
</g>
<g id="clust2" class="cluster">
<title>cluster_PublicModule_declarations</title>
<polygon fill="none" stroke="black" points="16,-78 16,-130 1113,-130 1113,-78 16,-78"/>
</g>
<!-- ArticleComponent -->
<g id="node1" class="node">
<title>ArticleComponent</title>
<polygon fill="#ffffb3" stroke="black" points="1105.2,-122 984.8,-122 984.8,-86 1105.2,-86 1105.2,-122"/>
<text text-anchor="middle" x="1045" y="-99.8" font-family="Times,serif" font-size="14.00">ArticleComponent</text>
</g>
<!-- PublicModule -->
<g id="node8" class="node">
<title>PublicModule</title>
<polygon fill="#8dd3c7" stroke="black" points="709.83,-187 706.83,-191 685.83,-191 682.83,-187 614.17,-187 614.17,-151 709.83,-151 709.83,-187"/>
<text text-anchor="middle" x="662" y="-164.8" font-family="Times,serif" font-size="14.00">PublicModule</text>
</g>
<!-- ArticleComponent&#45;&gt;PublicModule -->
<g id="edge1" class="edge">
<title>ArticleComponent&#45;&gt;PublicModule</title>
<path fill="none" stroke="black" d="M1045,-122.11C1045,-141.34 1045,-169 1045,-169 1045,-169 719.73,-169 719.73,-169"/>
<polygon fill="black" stroke="black" points="719.73,-165.5 709.73,-169 719.73,-172.5 719.73,-165.5"/>
</g>
<!-- ContactComponent -->
<g id="node2" class="node">
<title>ContactComponent</title>
<polygon fill="#ffffb3" stroke="black" points="966.38,-122 841.62,-122 841.62,-86 966.38,-86 966.38,-122"/>
<text text-anchor="middle" x="904" y="-99.8" font-family="Times,serif" font-size="14.00">ContactComponent</text>
</g>
<!-- ContactComponent&#45;&gt;PublicModule -->
<g id="edge2" class="edge">
<title>ContactComponent&#45;&gt;PublicModule</title>
<path fill="none" stroke="black" d="M904,-122.03C904,-138.4 904,-160 904,-160 904,-160 719.81,-160 719.81,-160"/>
<polygon fill="black" stroke="black" points="719.81,-156.5 709.81,-160 719.81,-163.5 719.81,-156.5"/>
</g>
<!-- EvenementsComponent -->
<g id="node3" class="node">
<title>EvenementsComponent</title>
<polygon fill="#ffffb3" stroke="black" points="823.75,-122 674.25,-122 674.25,-86 823.75,-86 823.75,-122"/>
<text text-anchor="middle" x="749" y="-99.8" font-family="Times,serif" font-size="14.00">EvenementsComponent</text>
</g>
<!-- EvenementsComponent&#45;&gt;PublicModule -->
<g id="edge3" class="edge">
<title>EvenementsComponent&#45;&gt;PublicModule</title>
<path fill="none" stroke="black" d="M691.89,-122.11C691.89,-122.11 691.89,-140.99 691.89,-140.99"/>
<polygon fill="black" stroke="black" points="688.39,-140.99 691.89,-150.99 695.39,-140.99 688.39,-140.99"/>
</g>
<!-- FooterPlayoutComponent -->
<g id="node4" class="node">
<title>FooterPlayoutComponent</title>
<polygon fill="#ffffb3" stroke="black" points="656.16,-122 495.84,-122 495.84,-86 656.16,-86 656.16,-122"/>
<text text-anchor="middle" x="576" y="-99.8" font-family="Times,serif" font-size="14.00">FooterPlayoutComponent</text>
</g>
<!-- FooterPlayoutComponent&#45;&gt;PublicModule -->
<g id="edge4" class="edge">
<title>FooterPlayoutComponent&#45;&gt;PublicModule</title>
<path fill="none" stroke="black" d="M635.33,-122.11C635.33,-122.11 635.33,-140.99 635.33,-140.99"/>
<polygon fill="black" stroke="black" points="631.83,-140.99 635.33,-150.99 638.83,-140.99 631.83,-140.99"/>
</g>
<!-- HomeComponent -->
<g id="node5" class="node">
<title>HomeComponent</title>
<polygon fill="#ffffb3" stroke="black" points="477.55,-122 362.45,-122 362.45,-86 477.55,-86 477.55,-122"/>
<text text-anchor="middle" x="420" y="-99.8" font-family="Times,serif" font-size="14.00">HomeComponent</text>
</g>
<!-- HomeComponent&#45;&gt;PublicModule -->
<g id="edge5" class="edge">
<title>HomeComponent&#45;&gt;PublicModule</title>
<path fill="none" stroke="black" d="M420,-122.03C420,-138.4 420,-160 420,-160 420,-160 604.19,-160 604.19,-160"/>
<polygon fill="black" stroke="black" points="604.19,-163.5 614.19,-160 604.19,-156.5 604.19,-163.5"/>
</g>
<!-- NavBarrePlayoutComponent -->
<g id="node6" class="node">
<title>NavBarrePlayoutComponent</title>
<polygon fill="#ffffb3" stroke="black" points="344.02,-122 165.98,-122 165.98,-86 344.02,-86 344.02,-122"/>
<text text-anchor="middle" x="255" y="-99.8" font-family="Times,serif" font-size="14.00">NavBarrePlayoutComponent</text>
</g>
<!-- NavBarrePlayoutComponent&#45;&gt;PublicModule -->
<g id="edge6" class="edge">
<title>NavBarrePlayoutComponent&#45;&gt;PublicModule</title>
<path fill="none" stroke="black" d="M255,-122.11C255,-141.34 255,-169 255,-169 255,-169 604.12,-169 604.12,-169"/>
<polygon fill="black" stroke="black" points="604.12,-172.5 614.12,-169 604.12,-165.5 604.12,-172.5"/>
</g>
<!-- PlayoutComponent -->
<g id="node7" class="node">
<title>PlayoutComponent</title>
<polygon fill="#ffffb3" stroke="black" points="148.11,-122 23.89,-122 23.89,-86 148.11,-86 148.11,-122"/>
<text text-anchor="middle" x="86" y="-99.8" font-family="Times,serif" font-size="14.00">PlayoutComponent</text>
</g>
<!-- PlayoutComponent&#45;&gt;PublicModule -->
<g id="edge7" class="edge">
<title>PlayoutComponent&#45;&gt;PublicModule</title>
<path fill="none" stroke="black" d="M86,-122.29C86,-144.21 86,-178 86,-178 86,-178 603.88,-178 603.88,-178"/>
<polygon fill="black" stroke="black" points="603.88,-181.5 613.88,-178 603.88,-174.5 603.88,-181.5"/>
</g>
<!-- PublicRoutingModule -->
<g id="node9" class="node">
<title>PublicRoutingModule</title>
<polygon fill="#8dd3c7" stroke="black" points="1269.45,-122 1266.45,-126 1245.45,-126 1242.45,-122 1128.55,-122 1128.55,-86 1269.45,-86 1269.45,-122"/>
<text text-anchor="middle" x="1199" y="-99.8" font-family="Times,serif" font-size="14.00">PublicRoutingModule</text>
</g>
<!-- PublicRoutingModule&#45;&gt;PublicModule -->
<g id="edge8" class="edge">
<title>PublicRoutingModule&#45;&gt;PublicModule</title>
<path fill="none" stroke="black" d="M1199,-122.29C1199,-144.21 1199,-178 1199,-178 1199,-178 720.13,-178 720.13,-178"/>
<polygon fill="black" stroke="black" points="720.13,-174.5 710.13,-178 720.13,-181.5 720.13,-174.5"/>
</g>
</g>
</svg>
